<?xml version="1.0" encoding="UTF-8" standalone="no"?>
<!-- Created with Inkscape (http://www.inkscape.org/) -->

<svg
   xmlns:dc="http://purl.org/dc/elements/1.1/"
   xmlns:cc="http://creativecommons.org/ns#"
   xmlns:rdf="http://www.w3.org/1999/02/22-rdf-syntax-ns#"
   xmlns:svg="http://www.w3.org/2000/svg"
   xmlns="http://www.w3.org/2000/svg"
   xmlns:xlink="http://www.w3.org/1999/xlink"
   xmlns:sodipodi="http://sodipodi.sourceforge.net/DTD/sodipodi-0.dtd"
   xmlns:inkscape="http://www.inkscape.org/namespaces/inkscape"
   width="1594.4882"
   height="708.66138"
   id="svg2"
   version="1.1"
   inkscape:version="0.48.2 r9819"
   sodipodi:docname="tgg_logo.svg">
  <defs
     id="defs4">
    <linearGradient
       id="linearGradient8551">
      <stop
         style="stop-color:#000000;stop-opacity:1;"
         offset="0"
         id="stop8553" />
      <stop
         id="stop8559"
         offset="0.93000001"
         style="stop-color:#646464;stop-opacity:1;" />
      <stop
         style="stop-color:#000000;stop-opacity:1;"
         offset="1"
         id="stop8555" />
    </linearGradient>
    <linearGradient
       id="linearGradient8526">
      <stop
         style="stop-color:#000000;stop-opacity:1;"
         offset="0"
         id="stop8528" />
      <stop
         id="stop8534"
         offset="0.93000001"
         style="stop-color:#8c8c8c;stop-opacity:1;" />
      <stop
         style="stop-color:#000000;stop-opacity:1;"
         offset="1"
         id="stop8530" />
    </linearGradient>
    <linearGradient
       id="linearGradient8489">
      <stop
         style="stop-color:#e0e000;stop-opacity:1;"
         offset="0"
         id="stop8491" />
      <stop
         style="stop-color:#ffff90;stop-opacity:1;"
         offset="1"
         id="stop8493" />
    </linearGradient>
    <linearGradient
       id="linearGradient8481">
      <stop
         style="stop-color:#c2c200;stop-opacity:1;"
         offset="0"
         id="stop8483" />
      <stop
         style="stop-color:#ffff7f;stop-opacity:1;"
         offset="1"
         id="stop8485" />
    </linearGradient>
    <linearGradient
       id="linearGradient7345">
      <stop
         style="stop-color:#fffcf9;stop-opacity:1;"
         offset="0"
         id="stop7347" />
      <stop
         id="stop7353"
         offset="0.5"
         style="stop-color:#ffb263;stop-opacity:1;" />
      <stop
         style="stop-color:#af5700;stop-opacity:1;"
         offset="1"
         id="stop7349" />
    </linearGradient>
    <inkscape:perspective
       sodipodi:type="inkscape:persp3d"
       inkscape:vp_x="897.76186 : 264.28858 : 1"
       inkscape:vp_y="0 : 1187.6163 : 0"
       inkscape:vp_z="2183.7807 : 359.29788 : 1"
       inkscape:persp3d-origin="1233.6876 : 428.4624 : 1"
       id="perspective4818" />
    <linearGradient
       id="linearGradient4800">
      <stop
         style="stop-color:#000037;stop-opacity:1;"
         offset="0"
         id="stop4802" />
      <stop
         style="stop-color:#a3a3ff;stop-opacity:1;"
         offset="1"
         id="stop4804" />
    </linearGradient>
    <linearGradient
       id="linearGradient4790">
      <stop
         style="stop-color:#001b3a;stop-opacity:1;"
         offset="0"
         id="stop4792" />
      <stop
         id="stop7355"
         offset="0.5"
         style="stop-color:#0181ff;stop-opacity:1;" />
      <stop
         style="stop-color:#f5faff;stop-opacity:1;"
         offset="1"
         id="stop4794" />
    </linearGradient>
    <linearGradient
       inkscape:collect="always"
       xlink:href="#linearGradient4790"
       id="linearGradient7342"
       gradientUnits="userSpaceOnUse"
       x1="621.42859"
       y1="780.57141"
       x2="621.42853"
       y2="553.42859"
       gradientTransform="translate(-215.939,333.01056)" />
    <radialGradient
       inkscape:collect="always"
       xlink:href="#linearGradient7345"
       id="radialGradient7351"
       cx="207.33295"
       cy="458.85278"
       fx="207.33295"
       fy="458.85278"
       r="108.58632"
       gradientTransform="matrix(0.15260029,1.7153745,-1.3227391,0.2166025,782.63642,0.43099671)"
       gradientUnits="userSpaceOnUse" />
    <linearGradient
       inkscape:collect="always"
       xlink:href="#linearGradient4790"
       id="linearGradient7357"
       gradientUnits="userSpaceOnUse"
       x1="370.28571"
       y1="564.70203"
       x2="368.85715"
       y2="781.59229" />
    <linearGradient
       inkscape:collect="always"
       xlink:href="#linearGradient8481"
       id="linearGradient8487"
       x1="1044.325"
       y1="1537.1469"
       x2="1008.6148"
       y2="1419.4033"
       gradientUnits="userSpaceOnUse" />
    <linearGradient
       inkscape:collect="always"
       xlink:href="#linearGradient8489"
       id="linearGradient8495"
       x1="753.12012"
       y1="1044.2041"
       x2="793.10614"
       y2="903.09698"
       gradientUnits="userSpaceOnUse" />
    <linearGradient
       inkscape:collect="always"
       xlink:href="#linearGradient8526"
       id="linearGradient8532"
       x1="128.21245"
       y1="723.77557"
       x2="128.21245"
       y2="890.09241"
       gradientUnits="userSpaceOnUse" />
    <linearGradient
       inkscape:collect="always"
       xlink:href="#linearGradient8551"
       id="linearGradient8557"
       x1="143.6804"
       y1="1099.4261"
       x2="143.6804"
       y2="1187.8145"
       gradientUnits="userSpaceOnUse" />
    <linearGradient
       inkscape:collect="always"
       xlink:href="#linearGradient8551"
       id="linearGradient8561"
       gradientUnits="userSpaceOnUse"
       x1="143.6804"
       y1="1081.7485"
       x2="145.89011"
       y2="1181.1853" />
    <linearGradient
       inkscape:collect="always"
       xlink:href="#linearGradient8526"
       id="linearGradient8584"
       gradientUnits="userSpaceOnUse"
       x1="128.21245"
       y1="723.77557"
       x2="128.21245"
       y2="890.09241" />
    <linearGradient
       inkscape:collect="always"
       xlink:href="#linearGradient8526"
       id="linearGradient8586"
       gradientUnits="userSpaceOnUse"
       x1="128.21245"
       y1="723.77557"
       x2="128.21245"
       y2="890.09241" />
    <linearGradient
       inkscape:collect="always"
       xlink:href="#linearGradient8526"
       id="linearGradient8588"
       gradientUnits="userSpaceOnUse"
       x1="128.21245"
       y1="723.77557"
       x2="128.21245"
       y2="890.09241" />
    <linearGradient
       inkscape:collect="always"
       xlink:href="#linearGradient8526"
       id="linearGradient8590"
       gradientUnits="userSpaceOnUse"
       x1="128.21245"
       y1="723.77557"
       x2="128.21245"
       y2="890.09241" />
    <linearGradient
       inkscape:collect="always"
       xlink:href="#linearGradient8551"
       id="linearGradient8592"
       gradientUnits="userSpaceOnUse"
       x1="143.6804"
       y1="1099.4261"
       x2="143.6804"
       y2="1187.8145" />
    <linearGradient
       inkscape:collect="always"
       xlink:href="#linearGradient8551"
       id="linearGradient8594"
       gradientUnits="userSpaceOnUse"
       x1="143.6804"
       y1="1099.4261"
       x2="143.6804"
       y2="1187.8145" />
    <linearGradient
       inkscape:collect="always"
       xlink:href="#linearGradient8551"
       id="linearGradient8596"
       gradientUnits="userSpaceOnUse"
       x1="143.6804"
       y1="1099.4261"
       x2="143.6804"
       y2="1187.8145" />
    <linearGradient
       inkscape:collect="always"
       xlink:href="#linearGradient8551"
       id="linearGradient8598"
       gradientUnits="userSpaceOnUse"
       x1="143.6804"
       y1="1099.4261"
       x2="143.6804"
       y2="1187.8145" />
    <linearGradient
       inkscape:collect="always"
       xlink:href="#linearGradient8551"
       id="linearGradient8600"
       gradientUnits="userSpaceOnUse"
       x1="143.6804"
       y1="1099.4261"
       x2="143.6804"
       y2="1187.8145" />
    <linearGradient
       inkscape:collect="always"
       xlink:href="#linearGradient8551"
       id="linearGradient8602"
       gradientUnits="userSpaceOnUse"
       x1="143.6804"
       y1="1099.4261"
       x2="143.6804"
       y2="1187.8145" />
    <filter
       inkscape:collect="always"
       id="filter8655"
       x="-0.075800404"
       width="1.1516008"
       y="-0.28784224"
       height="1.5756845"
       color-interpolation-filters="sRGB">
      <feGaussianBlur
         inkscape:collect="always"
         stdDeviation="38.040559"
         id="feGaussianBlur8657" />
    </filter>
    <linearGradient
       inkscape:collect="always"
       xlink:href="#linearGradient8481"
       id="linearGradient8659"
       gradientUnits="userSpaceOnUse"
       x1="1044.325"
       y1="1537.1469"
       x2="1008.6148"
       y2="1419.4033"
       gradientTransform="translate(219.20928,-10.26316)" />
    <linearGradient
       inkscape:collect="always"
       xlink:href="#linearGradient8489"
       id="linearGradient8661"
       gradientUnits="userSpaceOnUse"
       x1="753.12012"
       y1="1044.2041"
       x2="793.10614"
       y2="903.09698"
       gradientTransform="translate(201.06241,-120.64208)" />
    <linearGradient
       inkscape:collect="always"
       xlink:href="#linearGradient4790"
       id="linearGradient8663"
       gradientUnits="userSpaceOnUse"
       x1="370.28571"
       y1="564.70203"
       x2="368.85715"
       y2="781.59229" />
    <radialGradient
       inkscape:collect="always"
       xlink:href="#linearGradient7345"
       id="radialGradient8665"
       gradientUnits="userSpaceOnUse"
       gradientTransform="matrix(0.15260029,1.7153745,-1.3227391,0.2166025,782.63642,0.43099671)"
       cx="207.33295"
       cy="458.85278"
       fx="207.33295"
       fy="458.85278"
       r="108.58632" />
    <linearGradient
       inkscape:collect="always"
       xlink:href="#linearGradient4790"
       id="linearGradient8667"
       gradientUnits="userSpaceOnUse"
       gradientTransform="translate(-15.939,233.01056)"
       x1="621.42859"
       y1="780.57141"
       x2="621.42853"
       y2="553.42859" />
  </defs>
  <sodipodi:namedview
     id="base"
     pagecolor="#ffffff"
     bordercolor="#666666"
     borderopacity="1.0"
     inkscape:pageopacity="0.0"
     inkscape:pageshadow="2"
     inkscape:zoom="0.45254832"
     inkscape:cx="747.95347"
     inkscape:cy="553.93225"
     inkscape:document-units="px"
     inkscape:current-layer="layer1"
     showgrid="false"
     units="cm"
     inkscape:window-width="1366"
     inkscape:window-height="744"
     inkscape:window-x="0"
     inkscape:window-y="24"
     inkscape:window-maximized="1"
     fit-margin-top="0"
     fit-margin-left="0"
     fit-margin-right="0"
     fit-margin-bottom="0"
     inkscape:snap-page="false"
     inkscape:snap-bbox="true"
     inkscape:bbox-paths="true"
     inkscape:bbox-nodes="false"
     inkscape:snap-bbox-edge-midpoints="false"
     inkscape:snap-bbox-midpoints="false"
     inkscape:snap-global="false" />
  <metadata
     id="metadata7">
    <rdf:RDF>
      <cc:Work
         rdf:about="">
        <dc:format>image/svg+xml</dc:format>
        <dc:type
           rdf:resource="http://purl.org/dc/dcmitype/StillImage" />
        <dc:title />
      </cc:Work>
    </rdf:RDF>
  </metadata>
  <g
     inkscape:label="Ebene 1"
     inkscape:groupmode="layer"
     id="layer1"
     transform="translate(190.98579,-508.79064)">
    <g
       id="g8639"
       style="fill:#000000;stroke:none;filter:url(#filter8655)"
       transform="translate(240,-60)">
      <rect
         id="rect8627"
         style="color:#000000;fill:#000000;fill-opacity:1;fill-rule:evenodd;stroke:none;stroke-width:2.4372716;marker-start:none;marker-mid:none;marker-end:none"
         transform="matrix(0.99480172,0.10183097,-0.9135132,0.40680909,0,0)"
         height="132.23126"
         width="238.35132"
         stroke-miterlimit="4"
         y="1529.1862"
         x="2185.4045" />
      <rect
         id="rect8629"
         style="color:#000000;fill:#000000;fill-opacity:1;fill-rule:evenodd;stroke:none;stroke-width:2.43727112;marker-start:none;marker-mid:none;marker-end:none"
         transform="matrix(0.91237021,-0.40936609,0,1,0,0)"
         height="221.46805"
         width="131.97031"
         stroke-miterlimit="4"
         y="1323.1244"
         x="979.18848" />
      <rect
         id="rect8631"
         style="color:#000000;fill:#000000;fill-opacity:1;fill-rule:evenodd;stroke:none;stroke-width:2.43727136;marker-start:none;marker-mid:none;marker-end:none"
         transform="matrix(0.99471599,0.102665,0,1,0,0)"
         height="221.41005"
         width="238.8007"
         stroke-miterlimit="4"
         y="830.08038"
         x="659.80267" />
      <path
         sodipodi:type="arc"
         style="color:#000000;fill:#000000;fill-opacity:1;fill-rule:nonzero;stroke:none;stroke-width:1;marker:none;visibility:visible;display:inline;overflow:visible;enable-background:accumulate"
         id="path8633"
         sodipodi:cx="370.72598"
         sodipodi:cy="679.76642"
         sodipodi:rx="31.314728"
         sodipodi:ry="117.1777"
         d="m 402.04071,679.76642 c 0,64.71545 -14.02008,117.17769 -31.31473,117.17769 -17.29464,0 -31.31473,-52.46224 -31.31473,-117.17769 0,-64.71546 14.02009,-117.1777 31.31473,-117.1777 17.23099,0 31.22456,52.09103 31.31431,116.5674 l -31.31431,0.6103 z"
         transform="matrix(1.0022256,0,0,1.0562031,-233.36908,286.70099)"
         sodipodi:start="0"
         sodipodi:end="6.277977" />
      <path
         sodipodi:type="arc"
         style="color:#000000;fill:#000000;fill-opacity:1;fill-rule:nonzero;stroke:none;stroke-width:1;marker:none;visibility:visible;display:inline;overflow:visible;enable-background:accumulate"
         id="path8635"
         sodipodi:cx="281.83255"
         sodipodi:cy="491.87805"
         sodipodi:rx="108.08632"
         sodipodi:ry="119.198"
         d="m 389.91887,491.87805 c 0,65.83124 -48.39189,119.198 -108.08632,119.198 -59.69443,0 -108.08632,-53.36676 -108.08632,-119.198 0,-65.83123 48.39189,-119.198 108.08632,-119.198 59.69443,0 108.08632,53.36677 108.08632,119.198 z"
         transform="matrix(1.7485676,0.36296644,-0.2675253,1.288786,-359.73472,255.90147)" />
      <path
         style="fill:#000000;fill-opacity:1;stroke:none"
         d="m 138.39171,880.67985 c 77.27667,25.25382 267.34117,130.30965 531.49606,0 41.55671,3.47423 44.9518,230.85885 0,248.03155 -265.67012,-117.1778 -469.87676,-26.264 -531.49606,0 40.25265,-6.1564 38.67232,-244.13208 0,-248.03155 z"
         id="path8637"
         inkscape:connector-curvature="0"
         sodipodi:nodetypes="ccccc" />
    </g>
    <rect
       id="shapes-f07-de.svgrect2965"
       style="color:#000000;fill:#ffffa2;fill-opacity:1;fill-rule:evenodd;stroke:none;stroke-width:2.43727159999999987;marker-start:none;marker-mid:none;marker-end:none"
       transform="matrix(0.99480172,0.10183097,-0.9135132,0.40680909,0,0)"
       height="132.23126"
       width="238.35132"
       stroke-miterlimit="4"
       y="1288.3945"
       x="2165.3337" />
    <rect
       id="shapes-f07-de.svgrect2966"
       style="color:#000000;fill:url(#linearGradient8659);fill-opacity:1;fill-rule:evenodd;stroke:none;stroke-width:2.43727112;marker-start:none;marker-mid:none;marker-end:none"
       transform="matrix(0.91237021,-0.40936609,0,1,0,0)"
       height="221.46805"
       width="131.97031"
       stroke-miterlimit="4"
       y="1312.8607"
       x="1198.3975" />
    <rect
       id="shapes-f07-de.svgrect3596"
       style="color:#000000;fill:url(#linearGradient8661);fill-opacity:1.0;fill-rule:evenodd;stroke:none;stroke-width:2.43727136000000000;marker-start:none;marker-mid:none;marker-end:none"
       transform="matrix(0.99471599,0.102665,0,1,0,0)"
       height="221.41005"
       width="238.8007"
       stroke-miterlimit="4"
       y="709.43829"
       x="860.8653" />
    <path
       sodipodi:type="arc"
       style="color:#000000;fill:url(#linearGradient8663);fill-opacity:1;fill-rule:nonzero;stroke:none;stroke-width:1;marker:none;visibility:visible;display:inline;overflow:visible;enable-background:accumulate"
       id="path3984"
       sodipodi:cx="370.72598"
       sodipodi:cy="679.76642"
       sodipodi:rx="31.314728"
       sodipodi:ry="117.1777"
       d="m 402.04071,679.76642 c 0,64.71545 -14.02008,117.17769 -31.31473,117.17769 -17.29464,0 -31.31473,-52.46224 -31.31473,-117.17769 0,-64.71546 14.02009,-117.1777 31.31473,-117.1777 17.23099,0 31.22456,52.09103 31.31431,116.5674 l -31.31431,0.6103 z"
       transform="matrix(1.0022256,0,0,1.0562031,-33.36908,186.70099)"
       sodipodi:start="0"
       sodipodi:end="6.277977" />
    <path
       sodipodi:type="arc"
       style="color:#000000;fill:url(#radialGradient8665);fill-opacity:1;fill-rule:nonzero;stroke:none;stroke-width:0.99988445999999997;stroke-linecap:butt;stroke-linejoin:miter;stroke-miterlimit:4;stroke-opacity:1;stroke-dasharray:0.99988445999999997, 0.99988445999999997;stroke-dashoffset:0;marker:none;visibility:visible;display:inline;overflow:visible;enable-background:accumulate"
       id="path3978"
       sodipodi:cx="281.83255"
       sodipodi:cy="491.87805"
       sodipodi:rx="108.08632"
       sodipodi:ry="119.198"
       d="m 389.91887,491.87805 c 0,65.83124 -48.39189,119.198 -108.08632,119.198 -59.69443,0 -108.08632,-53.36676 -108.08632,-119.198 0,-65.83123 48.39189,-119.198 108.08632,-119.198 59.69443,0 108.08632,53.36677 108.08632,119.198 z"
       transform="matrix(1.7485676,0.36296644,-0.2675253,1.288786,-159.73472,155.90147)" />
    <path
       style="fill:url(#linearGradient8667);fill-opacity:1;stroke:none"
       d="m 338.39171,780.67985 c 77.27667,25.25382 267.34117,130.30965 531.49606,0 41.55671,3.47423 44.9518,230.85885 0,248.03155 -265.67012,-117.1778 -469.87676,-26.264 -531.49606,0 40.25265,-6.1564 38.67232,-244.13208 0,-248.03155 z"
       id="path3980"
       inkscape:connector-curvature="0"
       sodipodi:nodetypes="ccccc" />
    <g
       id="g8520"
       style="fill:url(#linearGradient8532);fill-opacity:1;stroke:#1a1a1a;stroke-width:2;stroke-miterlimit:4;stroke-dasharray:none"
       transform="translate(200,-100)">
      <g
         id="text8497"
         style="font-size:335.82992554px;font-style:normal;font-weight:normal;line-height:125%;letter-spacing:0px;word-spacing:0px;fill:url(#linearGradient8590);fill-opacity:1;stroke:#1a1a1a;stroke-width:2;stroke-miterlimit:4;stroke-dasharray:none;font-family:Sans">
        <path
           id="path8506"
           style="fill:url(#linearGradient8584);fill-opacity:1;stroke:#1a1a1a;stroke-width:2;stroke-miterlimit:4;stroke-dasharray:none"
           d="m 33.943812,714.04446 207.106048,0 0,27.8765 -86.90911,0 0,216.94482 -33.28783,0 0,-216.94482 -86.909108,0 0,-27.8765"
           inkscape:connector-curvature="0" />
        <path
           id="path8508"
           style="fill:url(#linearGradient8586);fill-opacity:1;stroke:#1a1a1a;stroke-width:2;stroke-miterlimit:4;stroke-dasharray:none"
           d="m 440.12092,923.93816 0,-65.75576 -54.11322,0 0,-27.22059 86.90911,0 0,105.11083 c -12.79061,9.07354 -26.89283,15.96067 -42.3067,20.66141 -15.41424,4.59142 -31.86683,6.88713 -49.35781,6.88714 -38.26198,-10e-6 -68.21553,-11.1506 -89.86074,-33.45181 -21.536,-22.41048 -32.30398,-53.56654 -32.30396,-93.46829 -2e-5,-40.01083 10.76796,-71.16689 32.30396,-93.46829 21.64521,-22.41029 51.59876,-33.61554 89.86074,-33.61579 15.96051,2.5e-4 31.10126,1.968 45.42231,5.90326 14.42999,3.93575 27.71231,9.72968 39.847,17.38182 l 0,35.25559 c -12.24401,-10.38517 -25.25303,-18.20151 -39.02711,-23.44907 -13.77444,-5.24712 -28.25928,-7.87079 -43.45455,-7.87101 -29.9537,2.2e-4 -52.47352,8.36317 -67.55954,25.08886 -14.97685,16.72608 -22.46524,41.65093 -22.46518,74.77463 -6e-5,33.01462 7.48833,57.88481 22.46518,74.61065 15.08602,16.72594 37.60584,25.08888 67.55954,25.08886 11.69704,2e-5 22.13706,-0.98386 31.32007,-2.95163 9.18267,-2.07705 17.43629,-5.24731 24.7609,-9.51081"
           inkscape:connector-curvature="0" />
        <path
           id="path8510"
           style="fill:url(#linearGradient8588);fill-opacity:1;stroke:#1a1a1a;stroke-width:2;stroke-miterlimit:4;stroke-dasharray:none"
           d="m 700.52031,923.93816 0,-65.75576 -54.11323,0 0,-27.22059 86.90912,0 0,105.11083 c -12.79062,9.07354 -26.89284,15.96067 -42.3067,20.66141 -15.41425,4.59142 -31.86684,6.88713 -49.35782,6.88714 -38.26198,-10e-6 -68.21553,-11.1506 -89.86074,-33.45181 -21.536,-22.41048 -32.30397,-53.56654 -32.30395,-93.46829 -2e-5,-40.01083 10.76795,-71.16689 32.30395,-93.46829 21.64521,-22.41029 51.59876,-33.61554 89.86074,-33.61579 15.96051,2.5e-4 31.10127,1.968 45.42231,5.90326 14.42999,3.93575 27.71231,9.72968 39.84701,17.38182 l 0,35.25559 c -12.24402,-10.38517 -25.25304,-18.20151 -39.02711,-23.44907 -13.77445,-5.24712 -28.25929,-7.87079 -43.45456,-7.87101 -29.95369,2.2e-4 -52.47352,8.36317 -67.55953,25.08886 -14.97686,16.72608 -22.46524,41.65093 -22.46519,74.77463 -5e-5,33.01462 7.48833,57.88481 22.46519,74.61065 15.08601,16.72594 37.60584,25.08888 67.55953,25.08886 11.69705,2e-5 22.13706,-0.98386 31.32008,-2.95163 9.18266,-2.07705 17.43629,-5.24731 24.7609,-9.51081"
           inkscape:connector-curvature="0" />
      </g>
    </g>
    <g
       style="font-size:181.94996643px;font-style:normal;font-weight:normal;line-height:125%;letter-spacing:0px;word-spacing:0px;fill:url(#linearGradient8557);fill-opacity:1;stroke:#1a1a1a;stroke-width:2;stroke-miterlimit:4;stroke-dasharray:none;font-family:Sans"
       id="text8501"
       transform="translate(200,-100)">
      <path
         d="m 55.211566,1081.2334 17.946237,0 0,54.3717 65.210587,0 0,-54.3717 17.94623,0 0,132.6422 -17.94623,0 0,-63.1672 -65.210587,0 0,63.1672 -17.946237,0 0,-132.6422"
         style="fill:url(#linearGradient8561);fill-opacity:1;stroke:#1a1a1a;stroke-width:2;stroke-miterlimit:4;stroke-dasharray:none"
         id="path8537"
         inkscape:connector-curvature="0" />
      <path
         d="m 276.43003,1160.0369 0,7.9958 -75.16098,0 c 0.71072,11.2535 4.08674,19.8416 10.12808,25.7644 6.10049,5.8637 14.57016,8.7955 25.40903,8.7955 6.27815,0 12.34906,-0.77 18.21276,-2.3099 5.92276,-1.54 11.78638,-3.8499 17.59087,-6.9298 l 0,15.4587 c -5.86372,2.4876 -11.8754,4.3829 -18.03508,5.6859 -6.15984,1.303 -12.40844,1.9545 -18.74582,1.9546 -15.87329,-10e-5 -28.45933,-4.6199 -37.75818,-13.8595 -9.23966,-9.2396 -13.85948,-21.7368 -13.85947,-37.4917 -1e-5,-16.2877 4.3829,-29.1995 13.14873,-38.7354 8.82502,-9.5949 20.70032,-14.3924 35.62595,-14.3925 13.38557,10e-5 23.95784,4.3237 31.71686,12.971 7.81807,8.5882 11.72714,20.2858 11.72725,35.0929 m -16.34707,-4.7975 c -0.11854,-8.9434 -2.63575,-16.0805 -7.55164,-21.4111 -4.85681,-5.3305 -11.31271,-7.9958 -19.36772,-7.9959 -9.12124,10e-5 -16.43595,2.5766 -21.94416,7.7294 -5.44905,5.1529 -8.58816,12.4084 -9.41733,21.7664 l 58.28085,-0.089"
         style="fill:url(#linearGradient8592);fill-opacity:1;stroke:#1a1a1a;stroke-width:2;stroke-miterlimit:4;stroke-dasharray:none"
         id="path8539"
         inkscape:connector-curvature="0" />
      <path
         d="m 385.97314,1153.8179 0,60.0577 -16.34707,0 0,-59.5246 c -9e-5,-9.4173 -1.83617,-16.4655 -5.50825,-21.1446 -3.67224,-4.679 -9.18049,-7.0185 -16.52476,-7.0186 -8.8251,10e-5 -15.78444,2.8134 -20.87804,8.4401 -5.09369,5.6268 -7.64051,13.2968 -7.64048,23.0102 l 0,56.2375 -16.43591,0 0,-99.5039 16.43591,0 0,15.4587 c 3.90904,-5.982 8.49925,-10.4538 13.77063,-13.4153 5.33051,-2.9613 11.46065,-4.442 18.39045,-4.4421 11.43102,10e-5 20.07838,3.5538 25.94208,10.6611 5.86353,7.0483 8.79534,17.4429 8.79544,31.1838"
         style="fill:url(#linearGradient8594);fill-opacity:1;stroke:#1a1a1a;stroke-width:2;stroke-miterlimit:4;stroke-dasharray:none"
         id="path8541"
         inkscape:connector-curvature="0" />
      <path
         d="m 482.18986,1117.3035 0,15.4587 c -4.6199,-2.3691 -9.4174,-4.1459 -14.39252,-5.3306 -4.97526,-1.1845 -10.12813,-1.7768 -15.45864,-1.7768 -8.11435,0 -14.21488,1.2438 -18.30161,3.7313 -4.02757,2.4877 -6.04134,6.2191 -6.04131,11.1942 -3e-5,3.7907 1.45107,6.7818 4.3533,8.9732 2.90216,2.1322 8.73616,4.1756 17.50202,6.1301 l 5.59709,1.2438 c 11.60872,2.4877 19.84148,6.0117 24.69829,10.5723 4.91588,4.5014 7.37386,10.8092 7.37395,18.9235 -9e-5,9.2397 -3.67225,16.5544 -11.0165,21.9442 -7.28518,5.3898 -17.3244,8.0846 -30.1177,8.0847 -5.3306,-10e-5 -10.89808,-0.5331 -16.70244,-1.5992 -5.74518,-1.0069 -11.8161,-2.5468 -18.21276,-4.6198 l 0,-16.8802 c 6.04129,3.1392 11.99375,5.5083 17.85739,7.1075 5.86359,1.5399 11.66798,2.3099 17.41318,2.3099 7.69966,0 13.6225,-1.303 17.76855,-3.9091 4.14593,-2.6653 6.21893,-6.3967 6.219,-11.1942 -7e-5,-4.4421 -1.5104,-7.8477 -4.53098,-10.2169 -2.96149,-2.3691 -9.50623,-4.6494 -19.63425,-6.8409 l -5.68594,-1.3327 c -10.1281,-2.1321 -17.44282,-5.3897 -21.94416,-9.7727 -4.50138,-4.442 -6.75206,-10.513 -6.75205,-18.2127 -10e-6,-9.358 3.31678,-16.5839 9.95039,-21.6777 6.63356,-5.0935 16.05089,-7.6403 28.252,-7.6404 6.04125,10e-5 11.72718,0.4443 17.0578,1.3326 5.3305,0.8885 10.24646,2.2212 14.7479,3.9979"
         style="fill:url(#linearGradient8596);fill-opacity:1;stroke:#1a1a1a;stroke-width:2;stroke-miterlimit:4;stroke-dasharray:none"
         id="path8543"
         inkscape:connector-curvature="0" />
      <path
         d="m 596.35277,1153.8179 0,60.0577 -16.34706,0 0,-59.5246 c -9e-5,-9.4173 -1.83617,-16.4655 -5.50825,-21.1446 -3.67225,-4.679 -9.18049,-7.0185 -16.52476,-7.0186 -8.8251,10e-5 -15.78444,2.8134 -20.87805,8.4401 -5.09368,5.6268 -7.64051,13.2968 -7.64047,23.0102 l 0,56.2375 -16.43591,0 0,-138.2393 16.43591,0 0,54.1941 c 3.90904,-5.982 8.49925,-10.4538 13.77063,-13.4153 5.33051,-2.9613 11.46065,-4.442 18.39045,-4.4421 11.43102,10e-5 20.07837,3.5538 25.94208,10.6611 5.86353,7.0483 8.79533,17.4429 8.79543,31.1838"
         style="fill:url(#linearGradient8598);fill-opacity:1;stroke:#1a1a1a;stroke-width:2;stroke-miterlimit:4;stroke-dasharray:none"
         id="path8545"
         inkscape:connector-curvature="0" />
      <path
         d="m 629.13577,1114.3717 16.34707,0 0,99.5039 -16.34707,0 0,-99.5039 m 0,-38.7354 16.34707,0 0,20.7003 -16.34707,0 0,-20.7003"
         style="fill:url(#linearGradient8600);fill-opacity:1;stroke:#1a1a1a;stroke-width:2;stroke-miterlimit:4;stroke-dasharray:none"
         id="path8547"
         inkscape:connector-curvature="0" />
      <path
         d="m 762.31109,1153.8179 0,60.0577 -16.34707,0 0,-59.5246 c -8e-5,-9.4173 -1.83617,-16.4655 -5.50825,-21.1446 -3.67224,-4.679 -9.18049,-7.0185 -16.52475,-7.0186 -8.8251,10e-5 -15.78445,2.8134 -20.87805,8.4401 -5.09369,5.6268 -7.64051,13.2968 -7.64048,23.0102 l 0,56.2375 -16.43591,0 0,-99.5039 16.43591,0 0,15.4587 c 3.90905,-5.982 8.49925,-10.4538 13.77063,-13.4153 5.33051,-2.9613 11.46066,-4.442 18.39045,-4.4421 11.43102,10e-5 20.07838,3.5538 25.94208,10.6611 5.86353,7.0483 8.79534,17.4429 8.79544,31.1838"
         style="fill:url(#linearGradient8602);fill-opacity:1;stroke:#1a1a1a;stroke-width:2;stroke-miterlimit:4;stroke-dasharray:none"
         id="path8549"
         inkscape:connector-curvature="0" />
    </g>
  </g>
</svg>
